<mxfile host="app.diagrams.net" modified="2024-03-28T20:59:07.478Z" agent="Mozilla/5.0 (Windows NT 10.0; Win64; x64) AppleWebKit/537.36 (KHTML, like Gecko) Chrome/122.0.0.0 Safari/537.36 Edg/122.0.0.0" etag="lZLPx1IbtNdHP3VRGSEz" version="24.2.1" type="device">
  <diagram name="Page-1" id="a8C4xGPk8VuYL6Z7Mrxu">
    <mxGraphModel dx="4392" dy="3047" grid="1" gridSize="10" guides="1" tooltips="1" connect="1" arrows="1" fold="1" page="1" pageScale="1" pageWidth="827" pageHeight="1169" math="0" shadow="0">
      <root>
        <mxCell id="0" />
        <mxCell id="1" parent="0" />
        <mxCell id="NXjdQOix2UNAbfXUYJJF-8" value="" style="edgeStyle=orthogonalEdgeStyle;rounded=0;orthogonalLoop=1;jettySize=auto;html=1;" parent="1" source="NXjdQOix2UNAbfXUYJJF-2" target="NXjdQOix2UNAbfXUYJJF-7" edge="1">
          <mxGeometry relative="1" as="geometry" />
        </mxCell>
        <mxCell id="NXjdQOix2UNAbfXUYJJF-2" value="PROGRAM STARTS" style="rounded=0;whiteSpace=wrap;html=1;" parent="1" vertex="1">
          <mxGeometry x="354" y="-60" width="120" height="60" as="geometry" />
        </mxCell>
        <mxCell id="NXjdQOix2UNAbfXUYJJF-20" value="" style="edgeStyle=orthogonalEdgeStyle;rounded=0;orthogonalLoop=1;jettySize=auto;html=1;" parent="1" source="NXjdQOix2UNAbfXUYJJF-7" target="NXjdQOix2UNAbfXUYJJF-19" edge="1">
          <mxGeometry relative="1" as="geometry" />
        </mxCell>
        <mxCell id="NXjdQOix2UNAbfXUYJJF-7" value="Prepare the game" style="whiteSpace=wrap;html=1;rounded=0;" parent="1" vertex="1">
          <mxGeometry x="353" y="50" width="120" height="60" as="geometry" />
        </mxCell>
        <mxCell id="NXjdQOix2UNAbfXUYJJF-12" value="PROGRAM ENDS" style="rounded=0;whiteSpace=wrap;html=1;" parent="1" vertex="1">
          <mxGeometry x="354" y="1400" width="120" height="60" as="geometry" />
        </mxCell>
        <mxCell id="hIRfmhGts1hYeINIa9aE-90" style="edgeStyle=orthogonalEdgeStyle;rounded=0;orthogonalLoop=1;jettySize=auto;html=1;" edge="1" parent="1" source="NXjdQOix2UNAbfXUYJJF-19" target="NXjdQOix2UNAbfXUYJJF-23">
          <mxGeometry relative="1" as="geometry" />
        </mxCell>
        <mxCell id="hIRfmhGts1hYeINIa9aE-93" value="PLAYER" style="edgeLabel;html=1;align=center;verticalAlign=middle;resizable=0;points=[];" vertex="1" connectable="0" parent="hIRfmhGts1hYeINIa9aE-90">
          <mxGeometry x="-0.4505" y="-2" relative="1" as="geometry">
            <mxPoint x="11" y="2" as="offset" />
          </mxGeometry>
        </mxCell>
        <mxCell id="hIRfmhGts1hYeINIa9aE-91" style="edgeStyle=orthogonalEdgeStyle;rounded=0;orthogonalLoop=1;jettySize=auto;html=1;exitX=1;exitY=0.5;exitDx=0;exitDy=0;entryX=0.5;entryY=0;entryDx=0;entryDy=0;" edge="1" parent="1" source="NXjdQOix2UNAbfXUYJJF-19" target="NXjdQOix2UNAbfXUYJJF-25">
          <mxGeometry relative="1" as="geometry" />
        </mxCell>
        <mxCell id="hIRfmhGts1hYeINIa9aE-92" value="BOT" style="edgeLabel;html=1;align=center;verticalAlign=middle;resizable=0;points=[];" vertex="1" connectable="0" parent="hIRfmhGts1hYeINIa9aE-91">
          <mxGeometry x="-0.391" y="-1" relative="1" as="geometry">
            <mxPoint x="-113" y="-1" as="offset" />
          </mxGeometry>
        </mxCell>
        <mxCell id="NXjdQOix2UNAbfXUYJJF-19" value="Choose the starting&lt;div&gt;player&lt;/div&gt;" style="whiteSpace=wrap;html=1;rounded=0;" parent="1" vertex="1">
          <mxGeometry x="353" y="160" width="120" height="60" as="geometry" />
        </mxCell>
        <mxCell id="NXjdQOix2UNAbfXUYJJF-41" value="" style="edgeStyle=orthogonalEdgeStyle;rounded=0;orthogonalLoop=1;jettySize=auto;html=1;" parent="1" source="NXjdQOix2UNAbfXUYJJF-23" target="NXjdQOix2UNAbfXUYJJF-40" edge="1">
          <mxGeometry relative="1" as="geometry" />
        </mxCell>
        <mxCell id="NXjdQOix2UNAbfXUYJJF-23" value="Print out board data" style="whiteSpace=wrap;html=1;rounded=0;" parent="1" vertex="1">
          <mxGeometry x="124" y="290" width="120" height="60" as="geometry" />
        </mxCell>
        <mxCell id="hIRfmhGts1hYeINIa9aE-34" style="edgeStyle=orthogonalEdgeStyle;rounded=0;orthogonalLoop=1;jettySize=auto;html=1;" edge="1" parent="1">
          <mxGeometry relative="1" as="geometry">
            <mxPoint x="680" y="600" as="targetPoint" />
            <mxPoint x="867" y="400" as="sourcePoint" />
            <Array as="points">
              <mxPoint x="867" y="620" />
              <mxPoint x="680" y="620" />
            </Array>
          </mxGeometry>
        </mxCell>
        <mxCell id="hIRfmhGts1hYeINIa9aE-36" value="Skip" style="edgeLabel;html=1;align=center;verticalAlign=middle;resizable=0;points=[];" vertex="1" connectable="0" parent="hIRfmhGts1hYeINIa9aE-34">
          <mxGeometry x="-0.063" y="-1" relative="1" as="geometry">
            <mxPoint x="1" y="-173" as="offset" />
          </mxGeometry>
        </mxCell>
        <mxCell id="hIRfmhGts1hYeINIa9aE-49" style="edgeStyle=orthogonalEdgeStyle;rounded=0;orthogonalLoop=1;jettySize=auto;html=1;exitX=0.5;exitY=1;exitDx=0;exitDy=0;entryX=1;entryY=0.5;entryDx=0;entryDy=0;" edge="1" parent="1" source="NXjdQOix2UNAbfXUYJJF-25" target="hIRfmhGts1hYeINIa9aE-42">
          <mxGeometry relative="1" as="geometry" />
        </mxCell>
        <mxCell id="hIRfmhGts1hYeINIa9aE-50" value="Draw (any)" style="edgeLabel;html=1;align=center;verticalAlign=middle;resizable=0;points=[];" vertex="1" connectable="0" parent="hIRfmhGts1hYeINIa9aE-49">
          <mxGeometry x="0.4024" relative="1" as="geometry">
            <mxPoint x="15" as="offset" />
          </mxGeometry>
        </mxCell>
        <mxCell id="hIRfmhGts1hYeINIa9aE-53" value="YES" style="edgeLabel;html=1;align=center;verticalAlign=middle;resizable=0;points=[];" vertex="1" connectable="0" parent="hIRfmhGts1hYeINIa9aE-49">
          <mxGeometry x="-0.625" relative="1" as="geometry">
            <mxPoint y="-10" as="offset" />
          </mxGeometry>
        </mxCell>
        <mxCell id="hIRfmhGts1hYeINIa9aE-55" value="" style="edgeStyle=orthogonalEdgeStyle;rounded=0;orthogonalLoop=1;jettySize=auto;html=1;" edge="1" parent="1" source="NXjdQOix2UNAbfXUYJJF-25">
          <mxGeometry relative="1" as="geometry">
            <mxPoint x="1007" y="320" as="targetPoint" />
          </mxGeometry>
        </mxCell>
        <mxCell id="hIRfmhGts1hYeINIa9aE-56" value="NO" style="edgeLabel;html=1;align=center;verticalAlign=middle;resizable=0;points=[];" vertex="1" connectable="0" parent="hIRfmhGts1hYeINIa9aE-55">
          <mxGeometry x="-0.7167" relative="1" as="geometry">
            <mxPoint x="21" as="offset" />
          </mxGeometry>
        </mxCell>
        <mxCell id="NXjdQOix2UNAbfXUYJJF-25" value="Do I have to do draw or skip?" style="whiteSpace=wrap;html=1;rounded=0;" parent="1" vertex="1">
          <mxGeometry x="807" y="290" width="120" height="60" as="geometry" />
        </mxCell>
        <mxCell id="NXjdQOix2UNAbfXUYJJF-54" value="" style="edgeStyle=orthogonalEdgeStyle;rounded=0;orthogonalLoop=1;jettySize=auto;html=1;" parent="1" source="NXjdQOix2UNAbfXUYJJF-40" target="NXjdQOix2UNAbfXUYJJF-53" edge="1">
          <mxGeometry relative="1" as="geometry" />
        </mxCell>
        <mxCell id="NXjdQOix2UNAbfXUYJJF-71" value="Play a card" style="edgeLabel;html=1;align=center;verticalAlign=middle;resizable=0;points=[];" parent="NXjdQOix2UNAbfXUYJJF-54" vertex="1" connectable="0">
          <mxGeometry x="-0.0526" y="1" relative="1" as="geometry">
            <mxPoint x="-1" y="-25" as="offset" />
          </mxGeometry>
        </mxCell>
        <mxCell id="NXjdQOix2UNAbfXUYJJF-65" value="" style="edgeStyle=orthogonalEdgeStyle;rounded=0;orthogonalLoop=1;jettySize=auto;html=1;" parent="1" source="NXjdQOix2UNAbfXUYJJF-40" target="NXjdQOix2UNAbfXUYJJF-64" edge="1">
          <mxGeometry relative="1" as="geometry" />
        </mxCell>
        <mxCell id="NXjdQOix2UNAbfXUYJJF-70" value="Draw (any)" style="edgeLabel;html=1;align=center;verticalAlign=middle;resizable=0;points=[];fontSize=11;" parent="NXjdQOix2UNAbfXUYJJF-65" vertex="1" connectable="0">
          <mxGeometry x="0.6667" y="-1" relative="1" as="geometry">
            <mxPoint x="35" y="1" as="offset" />
          </mxGeometry>
        </mxCell>
        <mxCell id="NXjdQOix2UNAbfXUYJJF-80" style="edgeStyle=orthogonalEdgeStyle;rounded=0;orthogonalLoop=1;jettySize=auto;html=1;" parent="1" source="NXjdQOix2UNAbfXUYJJF-40" edge="1">
          <mxGeometry relative="1" as="geometry">
            <mxPoint x="340" y="460" as="targetPoint" />
          </mxGeometry>
        </mxCell>
        <mxCell id="NXjdQOix2UNAbfXUYJJF-81" value="Skip" style="edgeLabel;html=1;align=center;verticalAlign=middle;resizable=0;points=[];" parent="NXjdQOix2UNAbfXUYJJF-80" vertex="1" connectable="0">
          <mxGeometry x="0.5799" y="2" relative="1" as="geometry">
            <mxPoint x="-24" y="2" as="offset" />
          </mxGeometry>
        </mxCell>
        <mxCell id="NXjdQOix2UNAbfXUYJJF-40" value="What will you&lt;div&gt;play?&lt;/div&gt;" style="shape=parallelogram;perimeter=parallelogramPerimeter;whiteSpace=wrap;html=1;fixedSize=1;rounded=0;" parent="1" vertex="1">
          <mxGeometry x="124" y="430" width="120" height="60" as="geometry" />
        </mxCell>
        <mxCell id="hIRfmhGts1hYeINIa9aE-80" style="edgeStyle=orthogonalEdgeStyle;rounded=0;orthogonalLoop=1;jettySize=auto;html=1;entryX=0.5;entryY=0;entryDx=0;entryDy=0;" edge="1" parent="1" source="NXjdQOix2UNAbfXUYJJF-42" target="NXjdQOix2UNAbfXUYJJF-12">
          <mxGeometry relative="1" as="geometry" />
        </mxCell>
        <mxCell id="hIRfmhGts1hYeINIa9aE-81" value="NO" style="edgeLabel;html=1;align=center;verticalAlign=middle;resizable=0;points=[];" vertex="1" connectable="0" parent="hIRfmhGts1hYeINIa9aE-80">
          <mxGeometry x="-0.371" y="-1" relative="1" as="geometry">
            <mxPoint as="offset" />
          </mxGeometry>
        </mxCell>
        <mxCell id="NXjdQOix2UNAbfXUYJJF-42" value="Do you want to&lt;div&gt;play again?&lt;/div&gt;" style="shape=parallelogram;perimeter=parallelogramPerimeter;whiteSpace=wrap;html=1;fixedSize=1;" parent="1" vertex="1">
          <mxGeometry x="354" y="1280" width="120" height="60" as="geometry" />
        </mxCell>
        <mxCell id="NXjdQOix2UNAbfXUYJJF-49" value="Offers only possible choices" style="text;html=1;align=center;verticalAlign=middle;whiteSpace=wrap;rounded=0;" parent="1" vertex="1">
          <mxGeometry x="190" y="390" width="110" height="30" as="geometry" />
        </mxCell>
        <mxCell id="hIRfmhGts1hYeINIa9aE-15" style="edgeStyle=orthogonalEdgeStyle;rounded=0;orthogonalLoop=1;jettySize=auto;html=1;" edge="1" parent="1" source="NXjdQOix2UNAbfXUYJJF-50">
          <mxGeometry relative="1" as="geometry">
            <mxPoint x="340" y="680" as="targetPoint" />
            <Array as="points">
              <mxPoint x="-16" y="680" />
              <mxPoint x="330" y="680" />
            </Array>
          </mxGeometry>
        </mxCell>
        <mxCell id="NXjdQOix2UNAbfXUYJJF-50" value="Move the right amount of cards&lt;div&gt;&lt;div&gt;from the draw pile&lt;/div&gt;&lt;div&gt;into the players hand&lt;/div&gt;&lt;/div&gt;" style="whiteSpace=wrap;html=1;rounded=0;" parent="1" vertex="1">
          <mxGeometry x="-76" y="585" width="120" height="60" as="geometry" />
        </mxCell>
        <mxCell id="hIRfmhGts1hYeINIa9aE-18" value="" style="edgeStyle=orthogonalEdgeStyle;rounded=0;orthogonalLoop=1;jettySize=auto;html=1;" edge="1" parent="1" source="NXjdQOix2UNAbfXUYJJF-53" target="hIRfmhGts1hYeINIa9aE-17">
          <mxGeometry relative="1" as="geometry" />
        </mxCell>
        <mxCell id="NXjdQOix2UNAbfXUYJJF-53" value="Move the played card from the players hand to the discard pile" style="whiteSpace=wrap;html=1;rounded=0;" parent="1" vertex="1">
          <mxGeometry x="124" y="585" width="120" height="60" as="geometry" />
        </mxCell>
        <mxCell id="NXjdQOix2UNAbfXUYJJF-66" style="edgeStyle=orthogonalEdgeStyle;rounded=0;orthogonalLoop=1;jettySize=auto;html=1;entryX=0.5;entryY=0;entryDx=0;entryDy=0;" parent="1" source="NXjdQOix2UNAbfXUYJJF-64" target="NXjdQOix2UNAbfXUYJJF-50" edge="1">
          <mxGeometry relative="1" as="geometry">
            <Array as="points">
              <mxPoint x="-16" y="560" />
              <mxPoint x="-16" y="560" />
            </Array>
          </mxGeometry>
        </mxCell>
        <mxCell id="NXjdQOix2UNAbfXUYJJF-69" value="YES" style="edgeLabel;html=1;align=center;verticalAlign=middle;resizable=0;points=[];" parent="NXjdQOix2UNAbfXUYJJF-66" vertex="1" connectable="0">
          <mxGeometry x="-0.2128" y="-3" relative="1" as="geometry">
            <mxPoint x="3" y="3" as="offset" />
          </mxGeometry>
        </mxCell>
        <mxCell id="NXjdQOix2UNAbfXUYJJF-77" value="" style="edgeStyle=orthogonalEdgeStyle;rounded=0;orthogonalLoop=1;jettySize=auto;html=1;" parent="1" source="NXjdQOix2UNAbfXUYJJF-64" target="NXjdQOix2UNAbfXUYJJF-76" edge="1">
          <mxGeometry relative="1" as="geometry" />
        </mxCell>
        <mxCell id="NXjdQOix2UNAbfXUYJJF-79" value="NO" style="edgeLabel;html=1;align=center;verticalAlign=middle;resizable=0;points=[];" parent="NXjdQOix2UNAbfXUYJJF-77" vertex="1" connectable="0">
          <mxGeometry x="-0.35" y="-5" relative="1" as="geometry">
            <mxPoint x="-5" y="1" as="offset" />
          </mxGeometry>
        </mxCell>
        <mxCell id="NXjdQOix2UNAbfXUYJJF-64" value="Are&amp;nbsp;&lt;span style=&quot;background-color: initial;&quot;&gt;cards in the&lt;/span&gt;&lt;div&gt;draw pile?&lt;/div&gt;" style="whiteSpace=wrap;html=1;rounded=0;" parent="1" vertex="1">
          <mxGeometry x="-76" y="430" width="120" height="60" as="geometry" />
        </mxCell>
        <mxCell id="NXjdQOix2UNAbfXUYJJF-78" style="edgeStyle=orthogonalEdgeStyle;rounded=0;orthogonalLoop=1;jettySize=auto;html=1;exitX=0.5;exitY=1;exitDx=0;exitDy=0;entryX=0;entryY=0.5;entryDx=0;entryDy=0;" parent="1" source="NXjdQOix2UNAbfXUYJJF-76" target="NXjdQOix2UNAbfXUYJJF-50" edge="1">
          <mxGeometry relative="1" as="geometry">
            <Array as="points">
              <mxPoint x="-200" y="615" />
            </Array>
          </mxGeometry>
        </mxCell>
        <mxCell id="NXjdQOix2UNAbfXUYJJF-76" value="Shuffle the discard&lt;div&gt;pile and make a new&lt;/div&gt;&lt;div&gt;draw pile&lt;/div&gt;" style="whiteSpace=wrap;html=1;rounded=0;" parent="1" vertex="1">
          <mxGeometry x="-260" y="430" width="120" height="60" as="geometry" />
        </mxCell>
        <mxCell id="hIRfmhGts1hYeINIa9aE-4" value="" style="edgeStyle=orthogonalEdgeStyle;rounded=0;orthogonalLoop=1;jettySize=auto;html=1;" edge="1" parent="1" source="hIRfmhGts1hYeINIa9aE-1" target="hIRfmhGts1hYeINIa9aE-3">
          <mxGeometry relative="1" as="geometry" />
        </mxCell>
        <mxCell id="hIRfmhGts1hYeINIa9aE-5" value="YES" style="edgeLabel;html=1;align=center;verticalAlign=middle;resizable=0;points=[];" vertex="1" connectable="0" parent="hIRfmhGts1hYeINIa9aE-4">
          <mxGeometry x="0.25" y="1" relative="1" as="geometry">
            <mxPoint y="-25" as="offset" />
          </mxGeometry>
        </mxCell>
        <mxCell id="hIRfmhGts1hYeINIa9aE-13" style="edgeStyle=orthogonalEdgeStyle;rounded=0;orthogonalLoop=1;jettySize=auto;html=1;" edge="1" parent="1" source="hIRfmhGts1hYeINIa9aE-1">
          <mxGeometry relative="1" as="geometry">
            <mxPoint x="340" y="910" as="targetPoint" />
            <Array as="points">
              <mxPoint x="340" y="910" />
            </Array>
          </mxGeometry>
        </mxCell>
        <mxCell id="hIRfmhGts1hYeINIa9aE-14" value="NO" style="edgeLabel;html=1;align=center;verticalAlign=middle;resizable=0;points=[];" vertex="1" connectable="0" parent="hIRfmhGts1hYeINIa9aE-13">
          <mxGeometry x="-0.0841" y="7" relative="1" as="geometry">
            <mxPoint y="7" as="offset" />
          </mxGeometry>
        </mxCell>
        <mxCell id="hIRfmhGts1hYeINIa9aE-1" value="Was the card an Ober?" style="whiteSpace=wrap;html=1;rounded=0;" vertex="1" parent="1">
          <mxGeometry x="124" y="880" width="120" height="60" as="geometry" />
        </mxCell>
        <mxCell id="hIRfmhGts1hYeINIa9aE-12" value="" style="edgeStyle=orthogonalEdgeStyle;rounded=0;orthogonalLoop=1;jettySize=auto;html=1;" edge="1" parent="1" source="hIRfmhGts1hYeINIa9aE-3" target="hIRfmhGts1hYeINIa9aE-11">
          <mxGeometry relative="1" as="geometry" />
        </mxCell>
        <mxCell id="hIRfmhGts1hYeINIa9aE-3" value="To what do you&lt;div&gt;want to change?&lt;/div&gt;" style="shape=parallelogram;perimeter=parallelogramPerimeter;whiteSpace=wrap;html=1;fixedSize=1;rounded=0;" vertex="1" parent="1">
          <mxGeometry x="124" y="1020" width="120" height="60" as="geometry" />
        </mxCell>
        <mxCell id="hIRfmhGts1hYeINIa9aE-88" style="edgeStyle=orthogonalEdgeStyle;rounded=0;orthogonalLoop=1;jettySize=auto;html=1;" edge="1" parent="1" source="hIRfmhGts1hYeINIa9aE-11" target="NXjdQOix2UNAbfXUYJJF-25">
          <mxGeometry relative="1" as="geometry">
            <Array as="points">
              <mxPoint x="340" y="1190" />
              <mxPoint x="340" y="310" />
            </Array>
          </mxGeometry>
        </mxCell>
        <mxCell id="hIRfmhGts1hYeINIa9aE-11" value="Set the top card in the discard pile to the selected color" style="whiteSpace=wrap;html=1;rounded=0;" vertex="1" parent="1">
          <mxGeometry x="124" y="1160" width="120" height="60" as="geometry" />
        </mxCell>
        <mxCell id="hIRfmhGts1hYeINIa9aE-19" style="edgeStyle=orthogonalEdgeStyle;rounded=0;orthogonalLoop=1;jettySize=auto;html=1;" edge="1" parent="1" source="hIRfmhGts1hYeINIa9aE-17" target="hIRfmhGts1hYeINIa9aE-1">
          <mxGeometry relative="1" as="geometry" />
        </mxCell>
        <mxCell id="hIRfmhGts1hYeINIa9aE-20" value="YES" style="edgeLabel;html=1;align=center;verticalAlign=middle;resizable=0;points=[];" vertex="1" connectable="0" parent="hIRfmhGts1hYeINIa9aE-19">
          <mxGeometry x="-0.2218" relative="1" as="geometry">
            <mxPoint as="offset" />
          </mxGeometry>
        </mxCell>
        <mxCell id="hIRfmhGts1hYeINIa9aE-17" value="Do player any cards&lt;div&gt;in the hand?&lt;/div&gt;" style="whiteSpace=wrap;html=1;rounded=0;" vertex="1" parent="1">
          <mxGeometry x="124" y="725" width="120" height="60" as="geometry" />
        </mxCell>
        <mxCell id="hIRfmhGts1hYeINIa9aE-89" style="edgeStyle=orthogonalEdgeStyle;rounded=0;orthogonalLoop=1;jettySize=auto;html=1;entryX=1;entryY=0.75;entryDx=0;entryDy=0;" edge="1" parent="1" source="hIRfmhGts1hYeINIa9aE-26" target="NXjdQOix2UNAbfXUYJJF-23">
          <mxGeometry relative="1" as="geometry">
            <Array as="points">
              <mxPoint x="697" y="600" />
              <mxPoint x="410" y="600" />
              <mxPoint x="410" y="335" />
            </Array>
          </mxGeometry>
        </mxCell>
        <mxCell id="hIRfmhGts1hYeINIa9aE-26" value="Move the right amount of cards from the draw pile into the hand" style="rounded=0;whiteSpace=wrap;html=1;" vertex="1" parent="1">
          <mxGeometry x="637" y="490" width="120" height="60" as="geometry" />
        </mxCell>
        <mxCell id="hIRfmhGts1hYeINIa9aE-40" value="" style="edgeStyle=orthogonalEdgeStyle;rounded=0;orthogonalLoop=1;jettySize=auto;html=1;" edge="1" parent="1" source="hIRfmhGts1hYeINIa9aE-42" target="hIRfmhGts1hYeINIa9aE-43">
          <mxGeometry relative="1" as="geometry" />
        </mxCell>
        <mxCell id="hIRfmhGts1hYeINIa9aE-41" value="NO" style="edgeLabel;html=1;align=center;verticalAlign=middle;resizable=0;points=[];" vertex="1" connectable="0" parent="hIRfmhGts1hYeINIa9aE-40">
          <mxGeometry x="-0.35" y="-5" relative="1" as="geometry">
            <mxPoint x="-5" y="5" as="offset" />
          </mxGeometry>
        </mxCell>
        <mxCell id="hIRfmhGts1hYeINIa9aE-44" style="edgeStyle=orthogonalEdgeStyle;rounded=0;orthogonalLoop=1;jettySize=auto;html=1;" edge="1" parent="1" source="hIRfmhGts1hYeINIa9aE-42" target="hIRfmhGts1hYeINIa9aE-26">
          <mxGeometry relative="1" as="geometry" />
        </mxCell>
        <mxCell id="hIRfmhGts1hYeINIa9aE-45" value="YES" style="edgeLabel;html=1;align=center;verticalAlign=middle;resizable=0;points=[];" vertex="1" connectable="0" parent="hIRfmhGts1hYeINIa9aE-44">
          <mxGeometry x="-0.3533" relative="1" as="geometry">
            <mxPoint as="offset" />
          </mxGeometry>
        </mxCell>
        <mxCell id="hIRfmhGts1hYeINIa9aE-42" value="Are&amp;nbsp;&lt;span style=&quot;background-color: initial;&quot;&gt;cards in the&lt;/span&gt;&lt;div&gt;draw pile?&lt;/div&gt;" style="whiteSpace=wrap;html=1;rounded=0;" vertex="1" parent="1">
          <mxGeometry x="637" y="370" width="120" height="60" as="geometry" />
        </mxCell>
        <mxCell id="hIRfmhGts1hYeINIa9aE-47" style="edgeStyle=orthogonalEdgeStyle;rounded=0;orthogonalLoop=1;jettySize=auto;html=1;entryX=0;entryY=0.5;entryDx=0;entryDy=0;" edge="1" parent="1" source="hIRfmhGts1hYeINIa9aE-43" target="hIRfmhGts1hYeINIa9aE-26">
          <mxGeometry relative="1" as="geometry">
            <Array as="points">
              <mxPoint x="520" y="520" />
            </Array>
          </mxGeometry>
        </mxCell>
        <mxCell id="hIRfmhGts1hYeINIa9aE-43" value="Shuffle the discard&lt;div&gt;pile and make a new&lt;/div&gt;&lt;div&gt;draw pile&lt;/div&gt;" style="whiteSpace=wrap;html=1;rounded=0;" vertex="1" parent="1">
          <mxGeometry x="460" y="370" width="120" height="60" as="geometry" />
        </mxCell>
        <mxCell id="hIRfmhGts1hYeINIa9aE-57" value="" style="edgeStyle=orthogonalEdgeStyle;rounded=0;orthogonalLoop=1;jettySize=auto;html=1;" edge="1" parent="1" source="hIRfmhGts1hYeINIa9aE-58" target="hIRfmhGts1hYeINIa9aE-68">
          <mxGeometry relative="1" as="geometry" />
        </mxCell>
        <mxCell id="hIRfmhGts1hYeINIa9aE-58" value="Move the last card from the hand to the discard pile" style="whiteSpace=wrap;html=1;rounded=0;" vertex="1" parent="1">
          <mxGeometry x="1010" y="290" width="120" height="60" as="geometry" />
        </mxCell>
        <mxCell id="hIRfmhGts1hYeINIa9aE-59" value="" style="edgeStyle=orthogonalEdgeStyle;rounded=0;orthogonalLoop=1;jettySize=auto;html=1;" edge="1" parent="1" source="hIRfmhGts1hYeINIa9aE-62">
          <mxGeometry relative="1" as="geometry">
            <mxPoint x="1070" y="760" as="targetPoint" />
          </mxGeometry>
        </mxCell>
        <mxCell id="hIRfmhGts1hYeINIa9aE-60" value="YES" style="edgeLabel;html=1;align=center;verticalAlign=middle;resizable=0;points=[];" vertex="1" connectable="0" parent="hIRfmhGts1hYeINIa9aE-59">
          <mxGeometry x="0.25" y="1" relative="1" as="geometry">
            <mxPoint y="-25" as="offset" />
          </mxGeometry>
        </mxCell>
        <mxCell id="hIRfmhGts1hYeINIa9aE-72" style="edgeStyle=orthogonalEdgeStyle;rounded=0;orthogonalLoop=1;jettySize=auto;html=1;exitX=0;exitY=0.5;exitDx=0;exitDy=0;" edge="1" parent="1" source="hIRfmhGts1hYeINIa9aE-62">
          <mxGeometry relative="1" as="geometry">
            <mxPoint x="650" y="600" as="targetPoint" />
            <Array as="points">
              <mxPoint x="650" y="650" />
            </Array>
          </mxGeometry>
        </mxCell>
        <mxCell id="hIRfmhGts1hYeINIa9aE-73" value="NO" style="edgeLabel;html=1;align=center;verticalAlign=middle;resizable=0;points=[];" vertex="1" connectable="0" parent="hIRfmhGts1hYeINIa9aE-72">
          <mxGeometry x="-0.8059" y="2" relative="1" as="geometry">
            <mxPoint as="offset" />
          </mxGeometry>
        </mxCell>
        <mxCell id="hIRfmhGts1hYeINIa9aE-62" value="Was the card an Ober?" style="whiteSpace=wrap;html=1;rounded=0;" vertex="1" parent="1">
          <mxGeometry x="1010" y="620" width="120" height="60" as="geometry" />
        </mxCell>
        <mxCell id="hIRfmhGts1hYeINIa9aE-74" style="edgeStyle=orthogonalEdgeStyle;rounded=0;orthogonalLoop=1;jettySize=auto;html=1;" edge="1" parent="1" source="hIRfmhGts1hYeINIa9aE-65">
          <mxGeometry relative="1" as="geometry">
            <mxPoint x="620" y="599.9999999999995" as="targetPoint" />
          </mxGeometry>
        </mxCell>
        <mxCell id="hIRfmhGts1hYeINIa9aE-65" value="Set the top card in the discard pile to the most frequent color&lt;div&gt;in the hand&lt;/div&gt;" style="whiteSpace=wrap;html=1;rounded=0;" vertex="1" parent="1">
          <mxGeometry x="1010" y="760" width="120" height="60" as="geometry" />
        </mxCell>
        <mxCell id="hIRfmhGts1hYeINIa9aE-66" style="edgeStyle=orthogonalEdgeStyle;rounded=0;orthogonalLoop=1;jettySize=auto;html=1;" edge="1" parent="1" source="hIRfmhGts1hYeINIa9aE-68" target="hIRfmhGts1hYeINIa9aE-62">
          <mxGeometry relative="1" as="geometry" />
        </mxCell>
        <mxCell id="hIRfmhGts1hYeINIa9aE-67" value="YES" style="edgeLabel;html=1;align=center;verticalAlign=middle;resizable=0;points=[];" vertex="1" connectable="0" parent="hIRfmhGts1hYeINIa9aE-66">
          <mxGeometry x="-0.2218" relative="1" as="geometry">
            <mxPoint as="offset" />
          </mxGeometry>
        </mxCell>
        <mxCell id="hIRfmhGts1hYeINIa9aE-76" style="edgeStyle=orthogonalEdgeStyle;rounded=0;orthogonalLoop=1;jettySize=auto;html=1;entryX=1;entryY=0.5;entryDx=0;entryDy=0;" edge="1" parent="1" target="hIRfmhGts1hYeINIa9aE-75">
          <mxGeometry relative="1" as="geometry">
            <mxPoint x="1131" y="480.00000000000045" as="sourcePoint" />
            <mxPoint x="1231" y="940" as="targetPoint" />
            <Array as="points">
              <mxPoint x="1150" y="481" />
              <mxPoint x="1150" y="940" />
            </Array>
          </mxGeometry>
        </mxCell>
        <mxCell id="hIRfmhGts1hYeINIa9aE-68" value="Do I have any cards&lt;div&gt;in the hand?&lt;/div&gt;" style="whiteSpace=wrap;html=1;rounded=0;" vertex="1" parent="1">
          <mxGeometry x="1010" y="450" width="120" height="60" as="geometry" />
        </mxCell>
        <mxCell id="hIRfmhGts1hYeINIa9aE-87" style="edgeStyle=orthogonalEdgeStyle;rounded=0;orthogonalLoop=1;jettySize=auto;html=1;entryX=0.75;entryY=0;entryDx=0;entryDy=0;" edge="1" parent="1" source="hIRfmhGts1hYeINIa9aE-75" target="NXjdQOix2UNAbfXUYJJF-42">
          <mxGeometry relative="1" as="geometry">
            <Array as="points">
              <mxPoint x="1070" y="1250" />
              <mxPoint x="444" y="1250" />
            </Array>
          </mxGeometry>
        </mxCell>
        <mxCell id="hIRfmhGts1hYeINIa9aE-75" value="Bot wins,&lt;div&gt;print it out&lt;/div&gt;" style="rounded=0;whiteSpace=wrap;html=1;" vertex="1" parent="1">
          <mxGeometry x="1010" y="910" width="120" height="60" as="geometry" />
        </mxCell>
        <mxCell id="hIRfmhGts1hYeINIa9aE-82" value="" style="edgeStyle=orthogonalEdgeStyle;rounded=0;orthogonalLoop=1;jettySize=auto;html=1;exitX=0;exitY=0.5;exitDx=0;exitDy=0;" edge="1" parent="1" source="hIRfmhGts1hYeINIa9aE-17" target="hIRfmhGts1hYeINIa9aE-24">
          <mxGeometry relative="1" as="geometry">
            <mxPoint x="-20" y="1050" as="targetPoint" />
            <mxPoint x="114" y="755" as="sourcePoint" />
          </mxGeometry>
        </mxCell>
        <mxCell id="hIRfmhGts1hYeINIa9aE-83" value="NO" style="edgeLabel;html=1;align=center;verticalAlign=middle;resizable=0;points=[];" vertex="1" connectable="0" parent="hIRfmhGts1hYeINIa9aE-82">
          <mxGeometry x="-0.783" y="4" relative="1" as="geometry">
            <mxPoint y="-4" as="offset" />
          </mxGeometry>
        </mxCell>
        <mxCell id="hIRfmhGts1hYeINIa9aE-85" style="edgeStyle=orthogonalEdgeStyle;rounded=0;orthogonalLoop=1;jettySize=auto;html=1;entryX=0.25;entryY=0;entryDx=0;entryDy=0;" edge="1" parent="1" source="hIRfmhGts1hYeINIa9aE-24" target="NXjdQOix2UNAbfXUYJJF-42">
          <mxGeometry relative="1" as="geometry">
            <Array as="points">
              <mxPoint x="-16" y="1250" />
              <mxPoint x="384" y="1250" />
            </Array>
          </mxGeometry>
        </mxCell>
        <mxCell id="hIRfmhGts1hYeINIa9aE-24" value="Player wins,&lt;div&gt;print it out&lt;/div&gt;" style="rounded=0;whiteSpace=wrap;html=1;" vertex="1" parent="1">
          <mxGeometry x="-76" y="880" width="120" height="60" as="geometry" />
        </mxCell>
      </root>
    </mxGraphModel>
  </diagram>
</mxfile>
